<?xml version="1.0" encoding="UTF-8" standalone="no"?>
<svg
   xmlns:dc="http://purl.org/dc/elements/1.1/"
   xmlns:cc="http://creativecommons.org/ns#"
   xmlns:rdf="http://www.w3.org/1999/02/22-rdf-syntax-ns#"
   xmlns:svg="http://www.w3.org/2000/svg"
   xmlns="http://www.w3.org/2000/svg"
   xmlns:sodipodi="http://sodipodi.sourceforge.net/DTD/sodipodi-0.dtd"
   xmlns:inkscape="http://www.inkscape.org/namespaces/inkscape"
   width="25.4125"
   height="30"
   viewBox="0 0 25.4125 30"
   fill="none"
   version="1.1"
   id="svg22"
   sodipodi:docname="icon.svg"
   inkscape:version="1.0.2 (1.0.2+r75+1)">
  <metadata
     id="metadata28">
    <rdf:RDF>
      <cc:Work
         rdf:about="">
        <dc:format>image/svg+xml</dc:format>
        <dc:type
           rdf:resource="http://purl.org/dc/dcmitype/StillImage" />
        <dc:title></dc:title>
      </cc:Work>
    </rdf:RDF>
  </metadata>
  <defs
     id="defs26" />
  <sodipodi:namedview
     pagecolor="#ffffff"
     bordercolor="#666666"
     borderopacity="1"
     objecttolerance="10"
     gridtolerance="10"
     guidetolerance="10"
     inkscape:pageopacity="0"
     inkscape:pageshadow="2"
     inkscape:window-width="2560"
     inkscape:window-height="1025"
     id="namedview24"
     showgrid="false"
     inkscape:zoom="16.760417"
     inkscape:cx="48"
     inkscape:cy="15"
     inkscape:window-x="1366"
     inkscape:window-y="27"
     inkscape:window-maximized="1"
     inkscape:current-layer="svg22" />
  <path
     fill-rule="evenodd"
     clip-rule="evenodd"
     d="M 12.7062,30 11.8962,29.7154 11.1896,29.4566 10.4959,29.1935 9.82805,28.9218 9.17313,28.6458 8.53976,28.3654 7.92793,28.0765 7.33764,27.7832 6.76459,27.4813 6.21308,27.1708 5.68312,26.8516 5.1747,26.5282 4.68782,26.1918 4.22248,25.8468 3.77869,25.4931 3.35644,25.1308 2.96005,24.7556 2.58519,24.3675 2.23188,23.9707 1.90443,23.561 1.60282,23.1426 1.32707,22.707 1.07286,22.2628 0.848805,21.8013 0.646299,21.3312 0.473952,20.8439 0.327458,20.3479 0.202507,19.8347 0.112025,19.3085 0.0473952,18.7651 0.00861731,18.2131 0,17.6438 V 1.16878 L 0.986682,0.996262 1.76655,0.866878 2.55072,0.746118 3.33059,0.638298 4.11046,0.53479 4.89463,0.439908 5.6745,0.357964 6.45437,0.284646 7.23854,0.215641 8.01841,0.159574 8.79828,0.112133 9.58245,0.0690052 10.3623,0.0388154 11.1422,0.0172513 11.9264,0.00431282 12.7062,0 l 0.7799,0.00431282 0.7842,0.01293848 0.7798,0.0215641 0.7799,0.0301898 0.7842,0.0431278 0.7798,0.047441 0.7799,0.056067 0.7842,0.069005 0.7799,0.073318 0.7798,0.081944 0.7842,0.094882 0.7799,0.103508 0.7798,0.10782 0.7842,0.12076 0.7799,0.129384 0.9867,0.172518 V 17.6438 l -0.0087,0.5693 -0.0387,0.552 -0.0647,0.5434 -0.0948,0.5262 -0.1163,0.5132 -0.1508,0.496 -0.1723,0.4873 -0.2025,0.4701 -0.2241,0.4615 -0.2542,0.4442 -0.2758,0.4356 -0.3059,0.4184 -0.3231,0.4097 -0.3533,0.3968 -0.3749,0.3881 -0.3964,0.3752 -0.4222,0.3623 -0.4438,0.3537 -0.4654,0.345 -0.4868,0.3364 -0.5085,0.3234 -0.5299,0.3192 -0.5515,0.3105 -0.5731,0.3019 -0.5903,0.2933 -0.6118,0.2889 -0.6334,0.2804 -0.6549,0.276 -0.6721,0.2717 -0.6894,0.2631 -0.7066,0.2588 z"
     fill="#fdb933"
     id="path2" />
  <path
     fill-rule="evenodd"
     clip-rule="evenodd"
     d="m 12.7752,28.8483 c 5.2867,-1.8459 11.3231,-4.563 11.4265,-10.9848 V 7.76288 C 17.3639,2.64787 8.96631,2.58749 1.3486,3.50181 V 17.8635 c 0.10772,6.4218 6.13984,9.1389 11.4266,10.9848 z"
     fill="#004c8d"
     id="path4" />
  <path
     fill-rule="evenodd"
     clip-rule="evenodd"
     d="m 14.378,19.7179 c -0.2887,0.1984 -0.5774,0.3838 -0.8617,0.565 l 0.461,0.3795 c 0.28,-0.1855 0.5687,-0.3795 0.8617,-0.5866 L 14.3866,19.7179 Z M 9.70309,16.6126 C 9.91853,16.3582 10.134,16.1124 10.3666,15.8838 9.13474,14.5389 8.04463,13.0706 7.11359,11.502 c -0.28868,0.2846 -0.57305,0.5822 -0.83588,0.8625 1.04696,1.4901 2.19126,2.9093 3.42538,4.2481 z"
     fill="#ffffff"
     id="path6" />
  <path
     fill-rule="evenodd"
     clip-rule="evenodd"
     d="m 15.2785,19.7529 -0.3361,-0.4313 c -2.5033,1.7769 -5.11866,3.1354 -6.5793,1.8977 -1.50803,-1.4276 1.06424,-4.6104 2.9514,-6.245 L 7.90208,10.7822 c -3.81747,3.3727 -6.12691,7.9011 -3.37368,10.657 2.86525,2.3678 6.5362,1.4621 10.7501,-1.6863 z"
     fill="#ffffff"
     id="path8" />
  <path
     fill-rule="evenodd"
     clip-rule="evenodd"
     d="m 14.5202,12.5332 -0.5257,0.4312 C 10.4744,9.2209 6.58365,6.98686 5.94597,7.71141 5.30829,8.43597 7.08776,12.3779 10.6252,16.1645 c 3.5374,3.7867 7.0403,6.3227 8.0141,5.3997 0.4696,-0.4313 0.2456,-1.5397 -0.4955,-2.9802 l 0.6635,-0.621 c 1.7235,2.6696 2.4258,4.8131 1.6459,5.542 C 19.1865,24.691 14.4513,21.6979 9.90993,16.8417 5.36861,11.9854 2.71878,7.05586 3.98553,5.86984 5.25227,4.68381 9.98318,7.67691 14.5202,12.5332 Z"
     fill="#fdb933"
     id="path10" />
  <path
     fill-rule="evenodd"
     clip-rule="evenodd"
     d="m 11.0603,9.21188 c 2.2276,-1.44911 4.4509,-2.41087 5.7435,-1.31541 1.508,1.43186 -1.06,4.61473 -2.9515,6.24493 l 3.3823,4.2223 C 21.0521,14.9738 23.3572,10.441 20.6083,7.68946 17.9111,5.45973 14.5073,6.13253 10.6036,8.83667 Z"
     fill="#ffffff"
     id="path12" />
  <path
     fill-rule="evenodd"
     clip-rule="evenodd"
     d="m 7.18685,11.4287 c 0.92027,1.5772 2.0018,3.0544 3.22715,4.4077 C 10.19,16.065 9.88407,16.3971 9.66864,16.6472 8.42721,15.318 7.27568,13.9075 6.22171,12.425 6.50177,12.1274 6.89386,11.7134 7.18685,11.4287 Z"
     fill="#ffffff"
     id="path14" />
</svg>
