<svg width="96" height="30" viewBox="0 0 96 30" fill="none" xmlns="http://www.w3.org/2000/svg">
<path fill-rule="evenodd" clip-rule="evenodd" d="M12.7062 30L11.8962 29.7154L11.1896 29.4566L10.4959 29.1935L9.82805 28.9218L9.17313 28.6458L8.53976 28.3654L7.92793 28.0765L7.33764 27.7832L6.76459 27.4813L6.21308 27.1708L5.68312 26.8516L5.1747 26.5282L4.68782 26.1918L4.22248 25.8468L3.77869 25.4931L3.35644 25.1308L2.96005 24.7556L2.58519 24.3675L2.23188 23.9707L1.90443 23.561L1.60282 23.1426L1.32707 22.707L1.07286 22.2628L0.848805 21.8013L0.646299 21.3312L0.473952 20.8439L0.327458 20.3479L0.202507 19.8347L0.112025 19.3085L0.0473952 18.7651L0.00861731 18.2131L0 17.6438V1.16878L0.986682 0.996262L1.76655 0.866878L2.55072 0.746118L3.33059 0.638298L4.11046 0.53479L4.89463 0.439908L5.6745 0.357964L6.45437 0.284646L7.23854 0.215641L8.01841 0.159574L8.79828 0.112133L9.58245 0.0690052L10.3623 0.0388154L11.1422 0.0172513L11.9264 0.00431282L12.7062 0L13.4861 0.00431282L14.2703 0.0172513L15.0501 0.0388154L15.83 0.0690052L16.6142 0.112133L17.394 0.159574L18.1739 0.215641L18.9581 0.284646L19.738 0.357964L20.5178 0.439908L21.302 0.53479L22.0819 0.638298L22.8617 0.746118L23.6459 0.866878L24.4258 0.996262L25.4125 1.16878V17.6438L25.4038 18.2131L25.3651 18.7651L25.3004 19.3085L25.2056 19.8347L25.0893 20.3479L24.9385 20.8439L24.7662 21.3312L24.5637 21.8013L24.3396 22.2628L24.0854 22.707L23.8096 23.1426L23.5037 23.561L23.1806 23.9707L22.8273 24.3675L22.4524 24.7556L22.056 25.1308L21.6338 25.4931L21.19 25.8468L20.7246 26.1918L20.2378 26.5282L19.7293 26.8516L19.1994 27.1708L18.6479 27.4813L18.0748 27.7832L17.4845 28.0765L16.8727 28.3654L16.2393 28.6458L15.5844 28.9218L14.9123 29.1935L14.2229 29.4566L13.5163 29.7154L12.7062 30Z" fill="#FDB933"/>
<path fill-rule="evenodd" clip-rule="evenodd" d="M12.7752 28.8483C18.0619 27.0024 24.0983 24.2853 24.2017 17.8635V7.76288C17.3639 2.64787 8.96631 2.58749 1.3486 3.50181V17.8635C1.45632 24.2853 7.48844 27.0024 12.7752 28.8483Z" fill="#004C8D"/>
<path fill-rule="evenodd" clip-rule="evenodd" d="M14.378 19.7179C14.0893 19.9163 13.8006 20.1017 13.5163 20.2829L13.9773 20.6624C14.2573 20.4769 14.546 20.2829 14.839 20.0758L14.3866 19.7179H14.378ZM9.70309 16.6126C9.91853 16.3582 10.134 16.1124 10.3666 15.8838C9.13474 14.5389 8.04463 13.0706 7.11359 11.502C6.82491 11.7866 6.54054 12.0842 6.27771 12.3645C7.32467 13.8546 8.46897 15.2738 9.70309 16.6126Z" fill="white"/>
<path fill-rule="evenodd" clip-rule="evenodd" d="M15.2785 19.7529L14.9424 19.3216C12.4391 21.0985 9.82374 22.457 8.3631 21.2193C6.85507 19.7917 9.42734 16.6089 11.3145 14.9743L7.90208 10.7822C4.08461 14.1549 1.77517 18.6833 4.5284 21.4392C7.39365 23.807 11.0646 22.9013 15.2785 19.7529Z" fill="white"/>
<path fill-rule="evenodd" clip-rule="evenodd" d="M14.5202 12.5332L13.9945 12.9644C10.4744 9.2209 6.58365 6.98686 5.94597 7.71141C5.30829 8.43597 7.08776 12.3779 10.6252 16.1645C14.1626 19.9512 17.6655 22.4872 18.6393 21.5642C19.1089 21.1329 18.8849 20.0245 18.1438 18.584L18.8073 17.963C20.5308 20.6326 21.2331 22.7761 20.4532 23.505C19.1865 24.691 14.4513 21.6979 9.90993 16.8417C5.36861 11.9854 2.71878 7.05586 3.98553 5.86984C5.25227 4.68381 9.98318 7.67691 14.5202 12.5332Z" fill="#FDB933"/>
<path fill-rule="evenodd" clip-rule="evenodd" d="M11.0603 9.21188C13.2879 7.76277 15.5112 6.80101 16.8038 7.89647C18.3118 9.32833 15.7438 12.5112 13.8523 14.1414L17.2346 18.3637C21.0521 14.9738 23.3572 10.441 20.6083 7.68946C17.9111 5.45973 14.5073 6.13253 10.6036 8.83667L11.0603 9.21188Z" fill="white"/>
<path fill-rule="evenodd" clip-rule="evenodd" d="M7.18685 11.4287C8.10712 13.0059 9.18865 14.4831 10.414 15.8364C10.19 16.065 9.88407 16.3971 9.66864 16.6472C8.42721 15.318 7.27568 13.9075 6.22171 12.425C6.50177 12.1274 6.89386 11.7134 7.18685 11.4287Z" fill="white"/>
<path fill-rule="evenodd" clip-rule="evenodd" d="M94.4156 5.83105C94.5973 5.83106 94.7749 5.88504 94.9259 5.98618C95.0769 6.08731 95.1945 6.23103 95.2639 6.39914C95.3332 6.56725 95.3511 6.75218 95.3154 6.93049C95.2796 7.10881 95.1918 7.27248 95.063 7.40078C94.9342 7.52908 94.7703 7.61623 94.592 7.65119C94.4137 7.68615 94.229 7.66734 94.0614 7.59715C93.8938 7.52696 93.7507 7.40854 93.6504 7.25691C93.5501 7.10527 93.497 6.92724 93.4978 6.74537C93.499 6.50323 93.5956 6.27133 93.7666 6.10011C93.9377 5.92888 94.1694 5.83219 94.4113 5.83105H94.4156ZM94.2605 7.03002V6.76694L94.351 6.74106L94.4113 6.7195C94.4726 6.79523 94.5273 6.87602 94.575 6.96101C94.6071 7.01483 94.6263 7.07536 94.631 7.13784C94.631 7.13784 94.631 7.16372 94.631 7.17234L94.5922 7.19391H94.8852C94.8605 7.18235 94.8389 7.16491 94.8224 7.14312C94.8058 7.12132 94.7949 7.09583 94.7904 7.06883C94.7912 7.06023 94.7912 7.05157 94.7904 7.04296C94.765 6.97265 94.7333 6.90481 94.6956 6.84026C94.658 6.7758 94.6163 6.71385 94.5707 6.6548C94.6273 6.62687 94.6784 6.58888 94.7215 6.54267C94.7501 6.50902 94.7654 6.46608 94.7646 6.42191C94.7658 6.40209 94.7621 6.38227 94.7538 6.36422C94.7456 6.34616 94.733 6.33042 94.7172 6.3184C94.6739 6.28976 94.6225 6.27613 94.5707 6.27959H94.0149C94.0279 6.27874 94.041 6.28103 94.053 6.28628C94.065 6.29154 94.0756 6.29959 94.0838 6.30978C94.0934 6.35237 94.0934 6.39657 94.0838 6.43916V7.03002C94.0939 7.07256 94.0939 7.11687 94.0838 7.1594C94.076 7.17038 94.0657 7.17927 94.0537 7.18528C94.0416 7.1913 94.0283 7.19426 94.0149 7.19391H94.3596C94.3469 7.19357 94.3344 7.19028 94.3232 7.18429C94.312 7.17831 94.3023 7.16978 94.2949 7.1594C94.2842 7.11695 94.2842 7.07248 94.2949 7.03002H94.2605ZM94.2605 6.69793C94.3476 6.67546 94.4305 6.63905 94.5061 6.59011C94.5286 6.57762 94.5475 6.55957 94.5611 6.53768C94.5747 6.51579 94.5824 6.49078 94.5836 6.46504C94.5844 6.44818 94.5808 6.43141 94.5733 6.41632C94.5657 6.40122 94.5545 6.38831 94.5405 6.37878C94.498 6.35673 94.4505 6.34631 94.4027 6.34859C94.3657 6.34116 94.3276 6.34116 94.2906 6.34859C94.2691 6.34859 94.2605 6.38741 94.2605 6.43485V6.68068V6.69793ZM94.4156 6.03376C94.2739 6.03376 94.1355 6.07586 94.0178 6.15472C93.9001 6.23358 93.8084 6.34565 93.7544 6.47672C93.7004 6.60779 93.6865 6.75196 93.7144 6.89095C93.7424 7.02994 93.8109 7.1575 93.9114 7.25745C94.0118 7.3574 94.1397 7.42525 94.2787 7.45238C94.4177 7.47952 94.5617 7.46472 94.6923 7.40987C94.8229 7.35502 94.9343 7.26259 95.0124 7.14429C95.0904 7.02599 95.1317 6.88715 95.1308 6.74537C95.1285 6.557 95.0522 6.3771 94.9183 6.2447C94.7844 6.1123 94.6038 6.03806 94.4156 6.03807V6.03376Z" fill="white"/>
<path fill-rule="evenodd" clip-rule="evenodd" d="M34.8226 10.1957C35.6651 10.2404 36.4973 10.4015 37.2957 10.6744C37.952 10.9246 38.5545 11.2978 39.0709 11.7742L36.7097 4.58473L34.8226 10.1914V10.1957ZM33.8876 18.1787V18.5151H29.3204V18.1787C30.2396 17.9775 30.9979 17.0128 31.5954 15.2848L31.6342 15.19L35.4128 4.4079C35.456 4.28539 35.4905 4.16002 35.5163 4.03269C35.5363 3.93331 35.5464 3.83218 35.5464 3.73079C35.5515 3.56475 35.4999 3.40194 35.3999 3.26932C35.271 3.11701 35.1068 2.99857 34.9217 2.92429V2.58789H39.7991V2.92429C39.6181 2.99548 39.4569 3.10941 39.3294 3.25638C39.2311 3.39476 39.1798 3.56104 39.1829 3.73079C39.1845 3.83089 39.196 3.93058 39.2174 4.02837C39.2432 4.13188 39.2777 4.26127 39.3294 4.4079L43.0564 15.8067C43.2407 16.4906 43.5315 17.1412 43.9181 17.7345C44.1535 18.006 44.4864 18.1734 44.8445 18.2003V18.5238H39.6052V18.1874C39.9007 18.0908 40.1565 17.8999 40.3333 17.644C40.4996 17.3596 40.579 17.0328 40.5617 16.7038C40.5625 16.0333 40.4126 15.3712 40.1232 14.7665C39.8339 14.1618 39.4124 13.63 38.8899 13.2104C37.6194 12.1764 36.0633 11.5564 34.4305 11.4335L33.0775 15.397C32.9751 15.6892 32.8902 15.9873 32.8233 16.2897C32.776 16.511 32.7501 16.7363 32.7458 16.9625C32.7221 17.2743 32.8193 17.5832 33.0172 17.8251C33.2538 18.0404 33.5594 18.1643 33.879 18.1744L33.8876 18.1787ZM45.9863 18.4461L45.8139 13.5468L46.0509 13.5209C46.194 14.6532 46.7401 15.696 47.5891 16.4579C48.4453 17.1871 49.5419 17.5714 50.6655 17.5361C51.4103 17.5733 52.1483 17.3774 52.7767 16.9755C53.0241 16.8236 53.2282 16.6104 53.3693 16.3566C53.5104 16.1028 53.5838 15.8168 53.5824 15.5264C53.5824 14.5315 52.5771 13.7567 50.5664 13.2017L49.7348 12.9689C48.7484 12.7488 47.8293 12.2947 47.0548 11.6448C46.7834 11.3827 46.5699 11.0664 46.4281 10.7165C46.2864 10.3666 46.2195 9.99085 46.2319 9.61348C46.2195 9.1343 46.3213 8.65906 46.5288 8.22708C46.7364 7.7951 47.0437 7.41879 47.4254 7.12929C48.3624 6.464 49.4968 6.13567 50.6439 6.19772C51.3285 6.20571 52.0102 6.28667 52.6776 6.43924C53.0928 6.53934 53.5127 6.61851 53.9358 6.67645C54.0402 6.674 54.1441 6.661 54.246 6.63763L54.8233 6.491L55.0517 10.338L54.8233 10.3639C54.6405 9.49032 54.1321 8.71924 53.4015 8.2075C52.5813 7.67934 51.6184 7.41728 50.6439 7.45707C50.1066 7.42457 49.5719 7.55536 49.1101 7.83228C48.9356 7.95184 48.7945 8.11405 48.7003 8.3035C48.606 8.49296 48.5617 8.70338 48.5715 8.9148C48.5715 9.69542 49.528 10.338 51.441 10.8513L52.1477 11.041C53.6126 11.4723 54.6381 11.9295 55.2111 12.4815C55.503 12.7673 55.7308 13.112 55.8794 13.4928C56.028 13.8735 56.0939 14.2815 56.0729 14.6897C56.0892 15.2769 55.9615 15.8592 55.7008 16.3855C55.4402 16.9118 55.0546 17.3661 54.5777 17.7086C53.5824 18.4634 52.2425 18.8429 50.5664 18.8429C49.8005 18.8366 49.0398 18.7175 48.3087 18.4893C47.8853 18.3465 47.4537 18.2298 47.0161 18.1399C46.8839 18.1486 46.7535 18.1747 46.6283 18.2176C46.4516 18.2693 46.2362 18.3383 45.9906 18.4332L45.9863 18.4461ZM59.8903 7.7374V14.6638C59.8903 15.7478 60.044 16.4666 60.3513 16.8202C60.6573 17.1825 61.2131 17.3636 61.9843 17.3636C62.5817 17.3992 63.1797 17.3059 63.738 17.0901C64.2962 16.8744 64.8017 16.5411 65.2201 16.1129C65.9871 15.282 66.3705 14.1189 66.3705 12.6238C66.3705 11.0367 65.9181 9.81906 65.0133 8.97087C64.1128 8.1083 62.8073 7.7029 61.0967 7.7029C60.9287 7.7029 60.6185 7.7029 60.1618 7.7374H59.8903ZM57.4602 8.81992C57.5017 8.34208 57.4076 7.86222 57.1888 7.4355C57.0547 7.27281 56.8896 7.13834 56.7033 7.03988C56.5169 6.94142 56.3129 6.88093 56.103 6.8619V6.56863H62.0016C62.9141 6.55034 63.8258 6.63278 64.7203 6.81446C65.3846 6.96767 66.0154 7.24098 66.5817 7.62096C67.3784 8.15808 68.0215 8.89391 68.4473 9.7558C68.8906 10.6581 69.1136 11.6529 69.0979 12.6583C69.0979 14.7199 68.5019 16.2121 67.3098 17.135C66.1178 18.058 64.1631 18.518 61.4457 18.5151H59.8903V20.7319C59.8402 21.3726 59.939 22.0162 60.179 22.6123C60.2908 22.7901 60.4441 22.938 60.6258 23.0432C60.8075 23.1484 61.012 23.2078 61.2217 23.2161V23.4404H56.2797V23.2161C56.4583 23.232 56.638 23.2005 56.8006 23.1248C56.9632 23.0491 57.1031 22.9318 57.206 22.7848C57.4249 22.335 57.5186 21.8344 57.4775 21.3357V8.82855L57.4602 8.81992ZM79.3224 9.98438C79.0917 9.26119 78.6775 8.6103 78.1202 8.09537C77.6213 7.68074 76.989 7.46158 76.3408 7.47863C75.8922 7.46784 75.4475 7.56296 75.0425 7.75627C74.6375 7.94959 74.2837 8.23567 74.0098 8.59134C73.3813 9.44217 73.0662 10.4844 73.1179 11.5413V11.7742L79.3224 9.98438ZM82.1273 14.4093L82.3341 14.4827L81.1363 18.6532H80.9252H80.5762C80.0716 18.668 79.5682 18.7098 79.0681 18.7782C78.5495 18.8478 78.0273 18.8881 77.5041 18.899C75.6194 18.9619 73.7839 18.2892 72.3854 17.0229C71.7305 16.4334 71.2113 15.7084 70.8639 14.8982C70.5164 14.088 70.3491 13.2119 70.3733 12.3306C70.3542 11.5216 70.5024 10.7175 70.8087 9.96859C71.1149 9.21972 71.5725 8.54232 72.1528 7.97892C72.7391 7.40304 73.4355 6.95151 74.2003 6.65138C74.9651 6.35125 75.7825 6.20869 76.6036 6.23223C77.8492 6.18705 79.0747 6.55553 80.0893 7.28024C81.0834 8.06706 81.8017 9.15005 82.1402 10.3725L73.2472 12.9387C73.3995 14.1825 73.9585 15.341 74.8371 16.2337C75.6933 17.0209 76.8247 17.4392 77.9867 17.3981C78.866 17.4238 79.7302 17.1652 80.4512 16.6606C81.2061 16.0748 81.7908 15.2975 82.1445 14.4093H82.1273ZM94.002 15.052L94.2389 15.1253L93.1144 18.7265L92.6447 18.6747C92.5327 18.6747 92.4465 18.6747 92.3948 18.6747C92.3431 18.6747 91.964 18.7092 91.4469 18.7782C90.9797 18.8398 90.5092 18.873 90.038 18.8774C89.1445 18.9141 88.2531 18.7647 87.4203 18.4388C86.5874 18.1129 85.8312 17.6176 85.1994 16.9841C84.581 16.3507 84.0972 15.5984 83.7773 14.7726C83.4574 13.9468 83.308 13.0648 83.338 12.1796C83.268 10.6272 83.7919 9.10645 84.803 7.92717C85.2864 7.3897 85.8821 6.96538 86.5479 6.68437C87.2136 6.40336 87.933 6.27255 88.6549 6.30123C89.0657 6.31224 89.4756 6.34535 89.8829 6.40043C90.3359 6.45969 90.7919 6.49281 91.2487 6.49962C91.4298 6.49776 91.6103 6.47753 91.7873 6.43924C92.0013 6.39298 92.2115 6.33099 92.4164 6.25379L93.1359 10.1353H92.9291C92.5853 9.41051 92.0779 8.77563 91.4469 8.28082C90.8984 7.87055 90.2316 7.64959 89.5468 7.65114C89.0577 7.63288 88.5714 7.73267 88.129 7.9421C87.6865 8.15153 87.3009 8.46444 87.0047 8.85442C86.3504 9.79677 86.0276 10.9301 86.087 12.0761C86.087 13.7322 86.4618 15.0361 87.2115 15.9878C87.5729 16.4519 88.0398 16.8229 88.5735 17.0697C89.1071 17.3165 89.692 17.4321 90.2793 17.4068C91.0403 17.4202 91.7887 17.2119 92.4336 16.8073C93.1018 16.3656 93.6473 15.7617 94.0192 15.052H94.002Z" fill="white"/>
<path fill-rule="evenodd" clip-rule="evenodd" d="M64.9616 25.2043L65.5864 22.2155H65.9871L65.3623 25.2043H64.9616ZM66.0862 25.2043L66.7109 22.2155H67.0987L67.6028 23.3369C67.7536 23.6776 67.8743 23.9665 67.9647 24.1994C68.0164 24.3374 68.0768 24.5186 68.1457 24.7515C68.1802 24.5013 68.2276 24.2382 68.2836 23.9708L68.6498 22.2155H69.0376L68.4171 25.2043H68.0208L67.2797 23.4792C67.1504 23.173 67.047 22.9056 66.9738 22.6727C66.9522 22.8668 66.9134 23.104 66.8531 23.3886L66.4739 25.2043H66.0862ZM69.1022 25.2043L69.7227 22.2155H71.6659L71.5926 22.5562H70.0544L69.8562 23.5094H71.4246L71.3557 23.8501H69.783L69.4986 25.2043H69.1022ZM71.8425 23.9536C71.8196 23.4783 71.9853 23.0132 72.3036 22.6597C72.4426 22.5011 72.6144 22.3747 72.8071 22.289C72.9998 22.2034 73.2087 22.1607 73.4195 22.1638C73.5883 22.157 73.7567 22.1861 73.9134 22.2493C74.0701 22.3125 74.2116 22.4083 74.3286 22.5304C74.4498 22.6608 74.5435 22.8143 74.6042 22.9818C74.6649 23.1492 74.6913 23.3272 74.6819 23.5051C74.6838 23.7837 74.6234 24.0592 74.5053 24.3115C74.4207 24.49 74.3071 24.6532 74.1692 24.7946C74.044 24.9226 73.8984 25.029 73.7383 25.1094C73.5364 25.2057 73.3157 25.2558 73.092 25.2561C72.8623 25.2578 72.6362 25.1983 72.4371 25.0835C72.2483 24.9714 72.098 24.8045 72.0063 24.6048C71.9047 24.4029 71.853 24.1796 71.8555 23.9536H71.8425ZM72.2346 23.9536C72.2319 24.1222 72.2688 24.2892 72.3423 24.4409C72.4145 24.5836 72.5269 24.7021 72.6655 24.7816C72.8031 24.8652 72.9613 24.9085 73.1222 24.9067C73.2725 24.9066 73.4204 24.8696 73.5531 24.7989C73.6975 24.7234 73.8251 24.6192 73.9279 24.4927C74.0427 24.3503 74.1303 24.1881 74.1864 24.014C74.2451 23.8343 74.2757 23.6466 74.2769 23.4576C74.2912 23.1974 74.203 22.9419 74.0313 22.746C73.9535 22.6601 73.8583 22.5919 73.7521 22.5458C73.6458 22.4997 73.531 22.4768 73.4152 22.4786C73.2563 22.4802 73.0997 22.517 72.9567 22.5864C72.8136 22.6557 72.6877 22.7559 72.5879 22.8797C72.3368 23.1792 72.209 23.5632 72.2303 23.9536H72.2346ZM74.8974 25.1871L75.5264 22.1983H76.7759C76.9646 22.1921 77.1531 22.2124 77.3361 22.2586C77.4625 22.2976 77.5699 22.3821 77.6377 22.4959C77.7161 22.6257 77.755 22.7755 77.7497 22.9271C77.7525 23.0389 77.7326 23.1501 77.6911 23.2539C77.6496 23.3577 77.5875 23.4519 77.5084 23.5309C77.2937 23.7157 77.0242 23.8248 76.7415 23.8415C76.8344 23.9082 76.9171 23.9881 76.9871 24.0787C77.1072 24.2482 77.2084 24.4304 77.2887 24.6221L77.517 25.1871H77.0862L76.875 24.6307C76.8062 24.4471 76.7166 24.272 76.6079 24.1088C76.5576 24.0246 76.4863 23.9547 76.4011 23.9061C76.2902 23.8688 76.1733 23.8527 76.0564 23.8587H75.5911L75.3153 25.1871H74.8974ZM75.6428 23.5352H76.1943C76.4485 23.5352 76.6251 23.5352 76.6941 23.5352C76.8229 23.5238 76.9485 23.4888 77.0646 23.4317C77.156 23.3831 77.2324 23.3103 77.2856 23.2214C77.3387 23.1325 77.3666 23.0308 77.3662 22.9271C77.3695 22.848 77.3484 22.7697 77.3059 22.7029C77.2714 22.6432 77.2185 22.5963 77.1551 22.5692C77.0482 22.542 76.9379 22.5304 76.8276 22.5347H75.8323L75.6212 23.5439L75.6428 23.5352ZM77.9005 25.1871L78.521 22.1983H79.0121L79.2793 24.152C79.3181 24.4064 79.3439 24.6479 79.3568 24.8852C79.4824 24.6029 79.6264 24.3292 79.7877 24.0657L80.8347 22.2155H81.3302L80.7097 25.2043H80.3133L80.6279 23.7509C80.7099 23.3691 80.812 22.9919 80.9338 22.6209C80.8411 22.8353 80.736 23.0441 80.6193 23.2463L79.5076 25.2043H79.1199L78.8484 23.2894C78.8226 23.1126 78.801 22.9099 78.7881 22.6727C78.7536 22.9358 78.7191 23.1428 78.689 23.298L78.2926 25.2043L77.9005 25.1871ZM81.1061 25.1871H81.537L82.0196 24.3245H83.226L83.3682 25.1871H83.756L83.2648 22.1983H82.7951L81.1018 25.1871H81.1061ZM82.1919 24.0183L82.6831 23.1557C82.7947 22.9594 82.894 22.7563 82.9804 22.5476C82.9804 22.746 83.0192 22.9789 83.0666 23.2894L83.1829 24.0398L82.1919 24.0183ZM82.7908 22.0171L83.17 21.4521H83.6353L83.0967 22.0171H82.7908ZM84.9193 25.1871L85.4708 22.539H84.4884L84.5617 22.1983H86.9099L86.841 22.539H85.8672L85.3114 25.2043L84.9193 25.1871ZM86.7591 25.1871H87.1555L87.7759 22.1983H87.3795L86.7591 25.1871ZM90.206 24.1347L90.6024 24.1908C90.4997 24.4987 90.3096 24.77 90.0552 24.9714C89.823 25.1462 89.54 25.2401 89.2495 25.2388C89.0907 25.2466 88.932 25.221 88.7836 25.1638C88.6352 25.1067 88.5004 25.0191 88.3878 24.9067C88.1613 24.6428 88.0468 24.3008 88.0689 23.9536C88.0511 23.4622 88.2241 22.9831 88.5515 22.6166C88.6868 22.4655 88.8531 22.3453 89.039 22.2642C89.2248 22.1831 89.4259 22.1429 89.6287 22.1465C89.9068 22.1349 90.1795 22.2254 90.3956 22.401C90.5928 22.5773 90.7147 22.8229 90.736 23.0867L90.3654 23.1212C90.3407 22.937 90.2541 22.7666 90.1199 22.6382C89.9876 22.5271 89.8183 22.4701 89.6459 22.4786C89.4687 22.4773 89.2941 22.5214 89.1388 22.6067C88.9834 22.692 88.8524 22.8157 88.7583 22.9659C88.5607 23.26 88.4584 23.6079 88.4653 23.9622C88.4495 24.2163 88.5295 24.4672 88.6894 24.6652C88.7654 24.7446 88.8572 24.8071 88.9589 24.8487C89.0606 24.8903 89.1699 24.9101 89.2797 24.9067C89.4845 24.9079 89.6831 24.8361 89.8398 24.704C90.0167 24.5558 90.1444 24.3573 90.206 24.1347ZM90.6369 25.1871H91.0678L91.546 24.3245H92.7568L92.8989 25.1871H93.2867L92.7955 22.1983H92.3216L90.6326 25.1871H90.6369ZM91.7227 24.0183L92.2139 23.1557C92.3237 22.9585 92.423 22.7555 92.5112 22.5476C92.5112 22.746 92.5499 22.9789 92.593 23.2894L92.7094 24.0398L91.7227 24.0183Z" fill="white"/>
</svg>
